<svg style="display: none;" aria-hidden="true" xmlns="http://www.w3.org/2000/svg" xmlns:xlink="http://www.w3.org/1999/xlink"><symbol viewBox="0 0 10 6" id="svg-arrow" xmlns="http://www.w3.org/2000/svg">
<path d="M8.4425 0.442505L5 3.8775L1.5575 0.442505L0.5 1.5L5 6L9.5 1.5L8.4425 0.442505Z"/>
</symbol><symbol viewBox="0 0 18 21" id="svg-cart" xmlns="http://www.w3.org/2000/svg">
<path d="M16 5H14C14 2.24 11.76 0 9 0C6.24 0 4 2.24 4 5H2C0.9 5 0 5.9 0 7V19C0 20.1 0.9 21 2 21H16C17.1 21 18 20.1 18 19V7C18 5.9 17.1 5 16 5ZM9 2C10.66 2 12 3.34 12 5H6C6 3.34 7.34 2 9 2ZM16 19H2V7H16V19ZM9 11C7.34 11 6 9.66 6 8H4C4 10.76 6.24 13 9 13C11.76 13 14 10.76 14 8H12C12 9.66 10.66 11 9 11Z"/>
</symbol><symbol viewBox="0 0 24 24" id="svg-email" xmlns="http://www.w3.org/2000/svg">
<g clip-path="url(#cclip0_2_5)">
<path d="M22 6C22 4.9 21.1 4 20 4H4C2.9 4 2 4.9 2 6V18C2 19.1 2.9 20 4 20H20C21.1 20 22 19.1 22 18V6ZM20 6L12 11L4 6H20ZM20 18H4V8L12 13L20 8V18Z"/>
</g>
<defs>
<clipPath id="cclip0_2_5">
<rect width="24" height="24"/>
</clipPath>
</defs>
</symbol><symbol viewBox="0 0 18 18" id="svg-fb" xmlns="http://www.w3.org/2000/svg">
<g clip-path="url(#dclip0_5_34)">
<path d="M15.3633 0H2.63672C1.18295 0 0 1.18295 0 2.63672V15.3633C0 16.817 1.18295 18 2.63672 18H7.94531V11.6367H5.83594V8.47266H7.94531V6.32812C7.94531 4.58336 9.36461 3.16406 11.1094 3.16406H14.3086V6.32812H11.1094V8.47266H14.3086L13.7812 11.6367H11.1094V18H15.3633C16.817 18 18 16.817 18 15.3633V2.63672C18 1.18295 16.817 0 15.3633 0Z"/>
</g>
<defs>
<clipPath id="dclip0_5_34">
<rect width="18" height="18"/>
</clipPath>
</defs>
</symbol><symbol viewBox="0 0 20 19" id="svg-heart" xmlns="http://www.w3.org/2000/svg">
<path d="M14.5 0C12.76 0 11.09 0.81 10 2.09C8.91 0.81 7.24 0 5.5 0C2.42 0 0 2.42 0 5.5C0 9.28 3.4 12.36 8.55 17.04L10 18.35L11.45 17.03C16.6 12.36 20 9.28 20 5.5C20 2.42 17.58 0 14.5 0ZM10.1 15.55L10 15.65L9.9 15.55C5.14 11.24 2 8.39 2 5.5C2 3.5 3.5 2 5.5 2C7.04 2 8.54 2.99 9.07 4.36H10.94C11.46 2.99 12.96 2 14.5 2C16.5 2 18 3.5 18 5.5C18 8.39 14.86 11.24 10.1 15.55Z"/>
</symbol><symbol viewBox="0 0 18 18" id="svg-insta" xmlns="http://www.w3.org/2000/svg">
<g clip-path="url(#fclip0_8_4)">
<path d="M15.3633 0H2.63672C1.18295 0 0 1.18295 0 2.63672V15.3633C0 16.817 1.18295 18 2.63672 18H15.3633C16.817 18 18 16.817 18 15.3633V2.63672C18 1.18295 16.817 0 15.3633 0ZM6.36328 14.2734H4.25391V6.89062H6.36328V14.2734ZM6.36328 5.83594H4.25391V3.72656H6.36328V5.83594ZM13.7461 14.2734H11.6367V10.0547C11.6367 9.47324 11.1635 9 10.582 9C10.0006 9 9.52734 9.47324 9.52734 10.0547V14.2734H7.41797V6.89062H9.52734V7.28819C10.08 7.11639 10.4389 6.89062 11.1094 6.89062C12.5399 6.89214 13.7461 8.17548 13.7461 9.69214V14.2734Z"/>
</g>
<defs>
<clipPath id="fclip0_8_4">
<rect width="18" height="18"/>
</clipPath>
</defs>
</symbol><symbol viewBox="0 0 16 16" id="svg-person" xmlns="http://www.w3.org/2000/svg">
<path d="M8 1.9C9.16 1.9 10.1 2.84 10.1 4C10.1 5.16 9.16 6.1 8 6.1C6.84 6.1 5.9 5.16 5.9 4C5.9 2.84 6.84 1.9 8 1.9ZM8 10.9C10.97 10.9 14.1 12.36 14.1 13V14.1H1.9V13C1.9 12.36 5.03 10.9 8 10.9ZM8 0C5.79 0 4 1.79 4 4C4 6.21 5.79 8 8 8C10.21 8 12 6.21 12 4C12 1.79 10.21 0 8 0ZM8 9C5.33 9 0 10.34 0 13V16H16V13C16 10.34 10.67 9 8 9Z"/>
</symbol><symbol viewBox="0 0 18 18" id="svg-twitter" xmlns="http://www.w3.org/2000/svg">
<g clip-path="url(#hclip0_8_6)">
<path d="M6.71526 16.3844C5.93687 16.3844 5.1357 16.3214 4.32971 16.195C2.91014 15.9723 1.47313 15.2298 1.0665 15.0074L0 14.4243L1.15466 14.0446C2.41686 13.6296 3.18466 13.3721 4.13512 12.9689C3.18343 12.508 2.44995 11.679 2.09688 10.6073L1.82826 9.7918L2.04854 9.82545C1.83966 9.61492 1.67473 9.40124 1.54688 9.20692C1.09218 8.51629 0.851441 7.6724 0.902664 6.94923L0.953201 6.23745L1.37933 6.40252C1.19957 6.06304 1.06966 5.7005 0.993302 5.32051C0.807221 4.39381 0.962952 3.4093 1.43193 2.54838L1.80313 1.86695L2.29958 2.46324C3.86966 4.34931 5.85832 5.46813 8.2186 5.79566C8.12219 5.13113 8.19443 4.4898 8.43352 3.91494C8.71188 3.2456 9.20709 2.67802 9.86517 2.27345C10.596 1.82424 11.4824 1.60658 12.3609 1.66055C13.2929 1.71781 14.1391 2.06704 14.8112 2.67115C15.1394 2.58587 15.3813 2.49482 15.7081 2.37178C15.9048 2.29775 16.1278 2.21371 16.4068 2.11758L17.4352 1.76327L16.7646 3.67846C16.8088 3.67475 16.8544 3.6716 16.9021 3.66954L18.0001 3.61982L17.3511 4.50683C17.3139 4.55764 17.3044 4.57206 17.2912 4.59197C17.2389 4.6708 17.1738 4.76885 16.283 5.9584C16.06 6.25627 15.9486 6.64422 15.9693 7.05099C16.0483 8.59677 15.8586 9.99533 15.4053 11.2077C14.9766 12.3546 14.3122 13.3387 13.4308 14.1326C12.3401 15.1148 10.9494 15.7873 9.29704 16.1312C8.48653 16.2998 7.61614 16.3844 6.71526 16.3844Z"/>
</g>
<defs>
<clipPath id="hclip0_8_6">
<rect width="18.0001" height="18"/>
</clipPath>
</defs>
</symbol><symbol viewBox="0 0 18 18" id="svg-wa" xmlns="http://www.w3.org/2000/svg">
<path d="M9 0C4.0567 0 0 4.0567 0 9C0 10.6315 0.439865 12.2197 1.274 13.6092L0 18L4.39082 16.726C5.78032 17.5601 7.36853 18 9 18C13.9433 18 18 13.9433 18 9C18 4.0567 13.9433 0 9 0ZM14.6269 12.8028L14.2082 13.2215C13.6158 13.8139 12.2533 13.767 11.3779 13.5979C8.46689 13.0357 5.07307 9.74611 4.41856 6.89735C4.09447 5.48616 4.27341 4.25926 4.74142 3.79111L5.16014 3.37239C5.39127 3.1414 5.76672 3.14168 5.99757 3.37239L7.67271 5.04767C7.7845 5.15945 7.84575 5.30763 7.84575 5.46625C7.84575 5.62486 7.7845 5.77318 7.67271 5.88455L7.25414 6.30368C6.79271 6.7662 6.79271 7.51753 7.25414 7.97896L10.0204 10.7088C10.4832 11.1716 11.2321 11.1721 11.6956 10.7088L12.1143 10.2902C12.3305 10.0728 12.7343 10.0721 12.9522 10.2902L14.6269 11.9649C14.8543 12.1914 14.863 12.5666 14.6269 12.8028Z"/>
</symbol></svg>