<svg width="25" height="24" viewBox="0 0 25 24" fill="none" xmlns="http://www.w3.org/2000/svg">
<g clip-path="url(#clip0_32_12)">
<path d="M20.8177 0H3.84894C1.91058 0 0.333313 1.57727 0.333313 3.51562V20.4844C0.333313 22.4227 1.91058 24 3.84894 24H20.8177C22.756 24 24.3333 22.4227 24.3333 20.4844V3.51562C24.3333 1.57727 22.756 0 20.8177 0ZM8.81769 19.0312H6.00519V9.1875H8.81769V19.0312ZM8.81769 7.78125H6.00519V4.96875H8.81769V7.78125ZM18.6614 19.0312H15.8489V13.4062C15.8489 12.631 15.218 12 14.4427 12C13.6674 12 13.0364 12.631 13.0364 13.4062V19.0312H10.2239V9.1875H13.0364V9.71759C13.7733 9.48853 14.2519 9.1875 15.1458 9.1875C17.0532 9.18951 18.6614 10.9006 18.6614 12.9229V19.0312Z" fill="white"/>
</g>
<defs>
<clipPath id="clip0_32_12">
<rect width="24" height="24" fill="white" transform="translate(0.333313)"/>
</clipPath>
</defs>
</svg>
