<svg width="25" height="24" viewBox="0 0 25 24" fill="none" xmlns="http://www.w3.org/2000/svg">
<g clip-path="url(#clip0_32_10)">
<path d="M12.6667 0C6.07562 0 0.666687 5.40894 0.666687 12C0.666687 14.1753 1.25317 16.2929 2.36536 18.1456L0.666687 24L6.52112 22.3013C8.37378 23.4135 10.4914 24 12.6667 24C19.2578 24 24.6667 18.5911 24.6667 12C24.6667 5.40894 19.2578 0 12.6667 0ZM20.1693 17.0704L19.611 17.6287C18.821 18.4186 17.0045 18.356 15.8372 18.1306C11.9559 17.3809 7.43079 12.9948 6.55811 9.19647C6.12598 7.31488 6.36456 5.67902 6.98859 5.05481L7.54688 4.49652C7.85504 4.18854 8.35565 4.1889 8.66345 4.49652L10.897 6.73022C11.046 6.87927 11.1277 7.07684 11.1277 7.28833C11.1277 7.49982 11.046 7.69757 10.897 7.84607L10.3389 8.40491C9.72363 9.02161 9.72363 10.0234 10.3389 10.6386L14.0272 14.2784C14.6442 14.8954 15.6429 14.8962 16.2609 14.2784L16.8192 13.7203C17.1074 13.4304 17.6457 13.4295 17.9363 13.7203L20.1693 15.9532C20.4725 16.2552 20.484 16.7554 20.1693 17.0704Z" fill="white"/>
</g>
<defs>
<clipPath id="clip0_32_10">
<rect width="24" height="24" fill="white" transform="translate(0.666687)"/>
</clipPath>
</defs>
</svg>
